<svg width="15" height="19" viewBox="0 0 15 19" fill="none" xmlns="http://www.w3.org/2000/svg">
<path d="M6.58125 10.3531L10.7812 6.15312L9.84062 5.2125L6.58125 8.47187L5.15937 7.05L4.21875 7.99062L6.58125 10.3531ZM7.5 16.5219C9.43958 14.7573 10.8724 13.1568 11.7984 11.7203C12.7245 10.2839 13.1875 9.01875 13.1875 7.925C13.1875 6.20417 12.637 4.79688 11.5359 3.70312C10.4349 2.60938 9.08958 2.0625 7.5 2.0625C5.91042 2.0625 4.5651 2.60938 3.46406 3.70312C2.36302 4.79688 1.8125 6.20417 1.8125 7.925C1.8125 9.01875 2.28646 10.2839 3.23438 11.7203C4.18229 13.1568 5.60417 14.7573 7.5 16.5219ZM7.5 18.25C5.15208 16.2521 3.39844 14.3964 2.23906 12.6828C1.07969 10.9693 0.5 9.38333 0.5 7.925C0.5 5.7375 1.20365 3.99479 2.61094 2.69687C4.01823 1.39896 5.64792 0.75 7.5 0.75C9.35208 0.75 10.9818 1.39896 12.3891 2.69687C13.7964 3.99479 14.5 5.7375 14.5 7.925C14.5 9.38333 13.9203 10.9693 12.7609 12.6828C11.6016 14.3964 9.84792 16.2521 7.5 18.25Z" fill="#F33939"/>
</svg>
