<svg width="28" height="28" viewBox="0 0 28 28" fill="none" xmlns="http://www.w3.org/2000/svg">
<path d="M4.08334 21C3.61668 21 3.20834 20.825 2.85834 20.475C2.50834 20.125 2.33334 19.7167 2.33334 19.25V8.75C2.33334 8.30278 2.50834 7.89931 2.85834 7.53958C3.20834 7.17986 3.61668 7 4.08334 7H23.9167C24.3833 7 24.7917 7.17986 25.1417 7.53958C25.4917 7.89931 25.6667 8.30278 25.6667 8.75V19.25C25.6667 19.7167 25.4917 20.125 25.1417 20.475C24.7917 20.825 24.3833 21 23.9167 21H4.08334ZM4.08334 19.25H23.9167V8.75H20.125V14H18.375V8.75H14.875V14H13.125V8.75H9.62501V14H7.87501V8.75H4.08334V19.25Z" fill="#F33939"/>
</svg>
